PathFileType	4	(X/Y/Z)	c:/Users/goper/Files/vsCode/490R/osim_files/A06/A06_Fast_05.trc
DataRate	CameraRate	NumFrames	NumMarkers	Units                	OrigDataRate	OrigDataStartFrame	OrigNumFrames
120.00	120.00	8	36	mm	120.0	836	1336
                Frame#	Time	LPSIS			LASIS			LTH1			LTH2			LTH3			LTH4			LLFE			LMFE			LSH1			LSH2			LSH3			LSH4			LLMAL			LMMAL			LCAL			LMTP5			LTOE			LMTP1			RPSIS			RASIS			RTH1			RTH2			RTH3			RTH4			RLFE			RMFE			RSH1			RSH2			RSH3			RSH4			RLMAL			RMMAL			RCAL			RMTP1			RTOE			RMTP5		
		X1	Y1	Z1	X2	Y2	Z2	X3	Y3	Z3	X4	Y4	Z4	X5	Y5	Z5	X6	Y6	Z6	X7	Y7	Z7	X8	Y8	Z8	X9	Y9	Z9	X10	Y10	Z10	X11	Y11	Z11	X12	Y12	Z12	X13	Y13	Z13	X14	Y14	Z14	X15	Y15	Z15	X16	Y16	Z16	X17	Y17	Z17	X18	Y18	Z18	X19	Y19	Z19	X20	Y20	Z20	X21	Y21	Z21	X22	Y22	Z22	X23	Y23	Z23	X24	Y24	Z24	X25	Y25	Z25	X26	Y26	Z26	X27	Y27	Z27	X28	Y28	Z28	X29	Y29	Z29	X30	Y30	Z30	X31	Y31	Z31	X32	Y32	Z32	X33	Y33	Z33	X34	Y34	Z34	X35	Y35	Z35	X36	Y36	Z36

836	6.95833	-2064.39111	989.91693	422.63556	-2260.15137	936.34045	472.35870	-2124.11450	585.84564	499.34335	-2122.88989	543.48053	492.86023	-2185.51392	575.83875	485.48520	-2172.23315	533.05353	480.15125	-2129.93750	467.26120	475.37372	-2128.60571	462.03867	365.10413	-2049.43018	387.97778	488.87009	-2045.71790	341.74866	494.08011	-2109.77393	375.81573	481.81464	-2099.25879	334.83496	484.60391	-1992.54077	92.86034	447.76581	-2009.24243	106.34864	362.82962	-1923.31494	87.49714	398.09595	-2103.23926	38.02341	463.12717	-2142.16919	56.57629	407.20288	-2118.32983	52.71499	367.99274	-2052.31470	1013.20020	292.13782	-2225.50342	990.77124	224.23570	-2239.92383	601.76880	177.49364	-2260.45825	565.32098	175.47624	-2296.41138	626.76703	191.10339	-2310.50781	585.05292	185.72739	-2324.53027	467.64240	202.53098	-2318.85938	463.99631	291.14108	-2343.17114	310.78366	209.59505	-2354.59668	265.01663	210.22241	-2400.79614	321.85583	225.91205	-2405.06299	274.17520	219.58435	-2389.07422	130.11638	196.73862	-2393.03076	133.74962	282.39474	-2336.03882	92.73832	240.27264	-2533.09058	125.12386	284.78229	-2548.11816	143.22833	246.18970	-2529.98096	122.88899	196.14001
837	6.96667	-2073.89917	987.81702	422.06973	-2269.87769	934.37170	472.40930	-2130.81250	584.99048	499.48004	-2129.08618	542.53357	492.86566	-2191.94434	574.29492	485.43820	-2178.31567	531.84991	480.02832	-2135.00952	466.36813	475.44540	-2133.24634	461.32373	365.06415	-2053.49341	387.90790	488.94693	-2049.17017	341.70126	494.12537	-2113.71484	375.08432	481.84515	-2102.35083	334.11557	484.56818	-1993.06299	93.40358	447.77493	-2009.80151	106.74380	362.79150	-1923.87390	88.18505	398.26294	-2103.38379	37.93666	463.19568	-2142.70532	56.36052	407.34955	-2118.52686	52.52598	368.05246	-2062.11597	1010.87665	291.43680	-2235.55420	988.21796	223.99869	-2248.88452	598.94775	177.49857	-2269.55908	562.47064	175.50052	-2305.35303	624.10229	191.43835	-2319.11572	582.23169	185.67479	-2333.76709	464.88580	202.33937	-2327.71094	461.01523	290.88562	-2358.84351	309.02884	209.71179	-2373.21582	263.90640	210.22676	-2416.80859	322.82532	226.26424	-2423.17212	275.48981	219.85419	-2413.91748	130.41751	196.89749	-2417.29663	134.27605	282.52179	-2363.53345	90.10705	239.88623	-2557.40820	132.91615	285.85101	-2571.84180	151.76964	247.28218	-2555.59131	130.58284	197.43341
838	6.97500	-2083.01562	985.99976	421.28577	-2279.69604	932.32355	472.44800	-2137.43140	584.02008	499.51154	-2135.42627	541.46332	492.90298	-2198.60547	572.71252	485.41061	-2184.40552	530.40503	480.02695	-2139.39624	465.29968	475.02954	-2138.32593	460.90427	365.17068	-2057.53979	387.80545	489.05823	-2052.67651	341.62903	494.19055	-2117.61060	374.29282	481.78555	-2105.92065	333.52127	484.70670	-1993.67273	94.04285	447.88669	-2010.43689	107.17410	362.80518	-1924.38330	89.06593	398.23337	-2103.36426	37.92824	463.19809	-2143.08130	56.05230	407.39059	-2118.74902	52.37279	368.09894	-2071.94800	1008.51831	290.75800	-2245.63721	985.42499	223.79176	-2258.64478	596.43805	177.57529	-2279.56030	560.14209	175.51509	-2314.97437	622.07172	191.59685	-2328.56152	580.31891	185.72752	-2344.50244	463.03424	202.29897	-2338.51050	458.93796	290.79135	-2375.39771	308.09885	209.87349	-2390.74731	263.55380	210.53867	-2432.69092	324.01898	226.58984	-2440.87207	277.07520	220.13213	-2437.16895	131.60574	197.38466	-2439.94287	135.59718	283.07965	-2387.73022	89.12676	240.72115	-2580.19043	139.39810	286.70337	-2593.11890	159.32500	247.70587	-2578.09448	136.86980	197.98523
839	6.98333	-2091.63403	984.22919	420.30341	-2289.25244	929.96417	472.37448	-2145.21216	583.26355	500.11868	-2141.66968	540.41516	492.91013	-2205.56592	571.11353	485.73514	-2190.50635	529.01978	479.95786	-2144.50049	464.20740	475.09515	-2142.74731	459.81891	365.15778	-2061.52563	387.63162	489.19571	-2056.08643	341.53687	494.27466	-2121.46118	373.39612	481.93491	-2109.05444	332.41022	484.38998	-1994.19153	94.60226	448.00156	-2011.08911	107.67612	362.93750	-1924.92664	90.03765	398.54175	-2103.65967	37.82319	463.50970	-2143.24561	55.57761	407.38681	-2118.97217	52.25263	368.15317	-2081.82422	1006.09100	289.92950	-2255.75513	982.55048	223.51259	-2268.66431	594.17499	177.69810	-2290.12988	558.02496	175.58887	-2324.76660	620.41010	191.33066	-2339.03760	578.76642	185.65417	-2356.40186	461.65610	202.35283	-2350.57349	457.86649	290.74930	-2391.18628	307.67087	210.33295	-2408.49170	263.44070	211.01335	-2448.19629	325.22812	226.72755	-2457.68457	278.49017	220.42711	-2457.18042	132.79126	198.31802	-2460.73169	137.32268	283.83719	-2409.48926	89.39415	241.82513	-2600.88770	145.02122	286.86093	-2613.01465	164.84264	247.75500	-2598.59863	142.03926	198.26466
840	6.99167	-2101.39111	981.99170	419.52942	-2298.97168	927.50043	472.34402	-2151.59131	582.17377	500.17126	-2147.31787	539.54095	493.00681	-2211.71094	569.11627	485.42841	-2196.75391	527.52301	480.05920	-2149.62793	463.16742	475.23022	-2147.63086	458.81171	365.18707	-2065.45435	387.60400	489.29803	-2061.05322	342.26181	495.16272	-2125.43774	372.57486	482.17062	-2112.32617	330.97476	485.46191	-1994.93884	95.26503	448.32681	-2011.70996	108.25114	363.14142	-1925.48340	91.08475	398.89011	-2103.87866	37.59372	463.67487	-2143.53882	54.94495	407.45166	-2119.18042	52.10268	368.21304	-2091.83228	1003.64050	289.14243	-2265.89917	979.60138	223.20897	-2280.53906	592.10388	178.22394	-2300.70117	556.08649	175.85912	-2334.20728	618.68488	190.50761	-2349.55444	577.17596	185.36279	-2368.36621	460.47552	202.39014	-2363.49854	457.10388	290.97513	-2406.97949	307.30478	210.90344	-2424.57153	263.30356	212.39177	-2463.17651	326.16129	226.78883	-2473.66333	279.63129	220.85744	-2476.35303	133.91487	199.52948	-2480.45557	139.02812	285.13992	-2429.39624	89.79761	243.98502	-2620.32031	149.64972	286.56586	-2631.67065	169.43584	247.16425	-2617.69141	146.33513	197.92285
841	7.00000	-2111.33447	979.69257	418.79755	-2308.74854	925.05713	472.21689	-2158.39355	581.14764	500.22726	-2154.51147	538.48883	493.44003	-2219.02393	567.75415	485.79407	-2203.07837	526.08563	479.97482	-2154.84912	462.19516	475.39270	-2152.67017	457.79913	365.25534	-2070.18701	387.47968	489.69470	-2064.88940	342.19913	495.39667	-2130.03491	372.01160	482.31943	-2116.03052	330.39044	485.56207	-1995.72949	95.95195	448.68094	-2012.48157	108.95242	363.39349	-1926.04785	92.40864	399.33707	-2104.05933	37.24064	463.69012	-2143.71118	54.34870	407.43976	-2119.46021	51.90738	368.27835	-2101.62183	1001.28125	288.25830	-2277.06274	977.14722	222.91162	-2290.86719	589.98376	178.46832	-2312.00098	553.88715	176.09294	-2344.66187	617.17010	189.70204	-2361.35962	575.82184	185.21049	-2380.36890	459.30826	202.46274	-2376.68188	456.71704	291.13663	-2420.92480	306.85782	212.05124	-2439.47144	263.30093	212.77921	-2477.68457	326.84006	226.79427	-2488.59229	280.66992	220.67610	-2493.30298	134.49208	201.28743	-2498.99438	140.55960	286.65909	-2448.99536	89.86587	246.65598	-2638.56226	153.50266	285.81174	-2649.19653	173.15881	246.12003	-2634.48877	148.99699	197.46721
842	7.00833	-2122.94775	976.59747	418.59381	-2318.60254	922.48273	471.92249	-2165.61914	580.26660	500.30823	-2160.90186	537.50653	493.40204	-2225.91626	566.13373	485.57455	-2209.51294	524.75574	479.82077	-2160.32422	461.27667	475.44611	-2157.75439	457.01956	365.23929	-2074.69653	387.49609	489.90283	-2068.86963	342.26175	495.56543	-2134.10205	371.18625	482.33127	-2119.84741	329.75253	485.51743	-1996.44958	96.87765	449.03027	-2013.36719	109.75440	363.72238	-1926.70361	93.99969	399.70520	-2104.31665	37.22806	464.06238	-2143.78369	53.77905	407.40216	-2119.82129	51.76392	368.36743	-2111.46289	998.81580	287.52133	-2286.30640	974.01434	222.24947	-2300.55322	588.18817	178.61095	-2322.13794	552.04840	176.37029	-2354.95654	615.31177	188.34233	-2372.22852	574.13428	184.91745	-2392.24268	457.94043	202.62544	-2390.13281	456.39618	291.37833	-2434.98267	306.20096	213.23819	-2454.09521	262.88022	214.12871	-2491.69678	326.98575	226.80836	-2502.95996	280.87692	221.10385	-2509.55444	134.83728	203.06627	-2516.31006	141.87888	288.30063	-2466.27856	90.08405	249.86052	-2655.77319	156.67137	284.93158	-2667.54785	175.83733	245.18217	-2650.25952	150.90150	196.60208
843	7.01667	-2133.10376	974.24103	418.07166	-2328.91455	920.16614	471.44910	-2172.51709	579.30133	500.19183	-2167.07715	536.92023	493.04636	-2232.30444	564.18762	485.08908	-2216.05151	523.46405	479.68872	-2165.95239	460.43759	475.42917	-2163.66113	456.42490	365.35861	-2079.46924	387.62537	489.99942	-2073.06177	342.41177	495.62772	-2139.06128	370.52423	482.36496	-2124.12231	329.93219	485.78049	-1997.44653	97.90676	449.39133	-2014.35596	110.65655	363.99075	-1927.79065	95.57876	400.27542	-2104.60376	37.12191	464.24481	-2144.08228	53.25581	407.35971	-2120.20093	51.69366	368.46042	-2121.37085	996.29779	286.87115	-2296.54932	971.55621	221.43089	-2311.25049	585.98059	179.03569	-2332.95190	549.94641	176.77621	-2366.50757	613.58844	187.93060	-2383.01123	572.32513	184.28435	-2403.75562	456.43961	202.99567	-2403.23315	456.00949	291.58978	-2448.68018	305.29428	214.18845	-2467.98364	262.29620	215.45433	-2504.61572	326.66922	226.62416	-2517.19434	280.71497	221.85316	-2524.40869	134.19382	205.16173	-2533.04663	142.87193	289.96048	-2482.50098	90.15264	253.10083	-2671.71143	158.80869	283.63248	-2681.72266	177.10172	243.50871	-2664.75659	151.92287	195.75809
